{
    "asset" : {
        "generator" : "Khronos glTF Blender I/O v1.3.48",
        "version" : "2.0"
    },
    "scene" : 0,
    "scenes" : [
        {
            "name" : "Scene",
            "nodes" : [
                7
            ]
        }
    ],
    "nodes" : [
        {
            "name" : "Bone.005",
            "rotation" : [
                2.3081647812679684e-20,
                -1.4210854715202004e-14,
                -7.495745274833026e-20,
                1
            ],
            "translation" : [
                -4.008233632155078e-13,
                1.0000001192092896,
                -3.779095092415474e-15
            ]
        },
        {
            "children" : [
                0
            ],
            "name" : "Bone.004",
            "rotation" : [
                2.3081647812679684e-20,
                -1.4210854715202004e-14,
                -7.495745274833026e-20,
                1
            ],
            "translation" : [
                -4.008233632155078e-13,
                1.000000238418579,
                -3.779095092415474e-15
            ]
        },
        {
            "children" : [
                1
            ],
            "name" : "Bone.003",
            "rotation" : [
                2.3081647812679684e-20,
                -1.4210854715202004e-14,
                -7.49574592106788e-20,
                1
            ],
            "translation" : [
                -4.008233632155078e-13,
                1.0000001192092896,
                -3.779095092415474e-15
            ]
        },
        {
            "children" : [
                2
            ],
            "name" : "Bone.002",
            "rotation" : [
                -1.4061592199609838e-20,
                0,
                5.880638044662018e-14,
                1
            ],
            "translation" : [
                -7.348503316267907e-13,
                1.0000001192092896,
                -3.779263651971978e-15
            ]
        },
        {
            "children" : [
                3
            ],
            "name" : "Bone.001",
            "rotation" : [
                6.71776874128227e-08,
                -2.3841872121010965e-07,
                3.6954879760742188e-06,
                1
            ],
            "translation" : [
                -2.155744766724199e-12,
                1,
                1.0437180633648957e-14
            ]
        },
        {
            "children" : [
                4
            ],
            "name" : "Bone",
            "rotation" : [
                2.629799951137102e-07,
                3.5798441899714817e-07,
                -0.7071093916893005,
                0.7071041464805603
            ],
            "scale" : [
                1,
                0.9999999403953552,
                1
            ],
            "translation" : [
                -3.0231728553771973,
                0,
                0
            ]
        },
        {
            "mesh" : 0,
            "name" : "Cube",
            "skin" : 0
        },
        {
            "children" : [
                6,
                5
            ],
            "name" : "Armature"
        }
    ],
    "meshes" : [
        {
            "name" : "Cube.001",
            "primitives" : [
                {
                    "attributes" : {
                        "POSITION" : 0,
                        "NORMAL" : 1,
                        "TEXCOORD_0" : 2,
                        "JOINTS_0" : 3,
                        "WEIGHTS_0" : 4
                    },
                    "indices" : 5
                }
            ]
        }
    ],
    "skins" : [
        {
            "inverseBindMatrices" : 6,
            "joints" : [
                5,
                4,
                3,
                2,
                1,
                0
            ],
            "name" : "Armature"
        }
    ],
    "accessors" : [
        {
            "bufferView" : 0,
            "componentType" : 5126,
            "count" : 416,
            "max" : [
                3.288219690322876,
                1.4242209196090698,
                1.4287225008010864
            ],
            "min" : [
                -3.3723490238189697,
                -1.4242209196090698,
                -1.4287225008010864
            ],
            "type" : "VEC3"
        },
        {
            "bufferView" : 1,
            "componentType" : 5126,
            "count" : 416,
            "type" : "VEC3"
        },
        {
            "bufferView" : 2,
            "componentType" : 5126,
            "count" : 416,
            "type" : "VEC2"
        },
        {
            "bufferView" : 3,
            "componentType" : 5123,
            "count" : 416,
            "type" : "VEC4"
        },
        {
            "bufferView" : 4,
            "componentType" : 5126,
            "count" : 416,
            "type" : "VEC4"
        },
        {
            "bufferView" : 5,
            "componentType" : 5123,
            "count" : 624,
            "type" : "SCALAR"
        },
        {
            "bufferView" : 6,
            "componentType" : 5126,
            "count" : 6,
            "type" : "MAT4"
        }
    ],
    "bufferViews" : [
        {
            "buffer" : 0,
            "byteLength" : 4992,
            "byteOffset" : 0
        },
        {
            "buffer" : 0,
            "byteLength" : 4992,
            "byteOffset" : 4992
        },
        {
            "buffer" : 0,
            "byteLength" : 3328,
            "byteOffset" : 9984
        },
        {
            "buffer" : 0,
            "byteLength" : 3328,
            "byteOffset" : 13312
        },
        {
            "buffer" : 0,
            "byteLength" : 6656,
            "byteOffset" : 16640
        },
        {
            "buffer" : 0,
            "byteLength" : 1248,
            "byteOffset" : 23296
        },
        {
            "buffer" : 0,
            "byteLength" : 384,
            "byteOffset" : 24544
        }
    ],
    "buffers" : [
        {
            "byteLength" : 24928,
            "uri" : "data:application/octet-stream;base64,"
        }
    ]
}
