{
    "asset" : {
        "generator" : "Khronos glTF Blender I/O v1.3.48",
        "version" : "2.0"
    },
    "scene" : 0,
    "scenes" : [
        {
            "name" : "Scene",
            "nodes" : [
                7
            ]
        }
    ],
    "nodes" : [
        {
            "name" : "Bone.005",
            "rotation" : [
                -9.348204343950783e-08,
                6.271447250405515e-10,
                0.2309330552816391,
                0.972969651222229
            ],
            "scale" : [
                0.9999998807907104,
                0.9999999403953552,
                1
            ],
            "translation" : [
                9.795076039154083e-08,
                0.9764502048492432,
                -9.751670940205421e-15
            ]
        },
        {
            "children" : [
                0
            ],
            "name" : "Bone.004",
            "rotation" : [
                -3.085738953245709e-08,
                2.162186873988503e-08,
                0.08068045228719711,
                0.9967400431632996
            ],
            "translation" : [
                2.9608369089828557e-08,
                1.0419034957885742,
                -7.164767944786796e-16
            ]
        },
        {
            "children" : [
                1
            ],
            "name" : "Bone.003",
            "rotation" : [
                -6.599231738846356e-08,
                -4.8160870846913895e-09,
                0.18047040700912476,
                0.9835804104804993
            ],
            "scale" : [
                0.9999999403953552,
                1,
                1
            ],
            "translation" : [
                -5.587915907767638e-09,
                1.1536129713058472,
                -1.0658141036401503e-14
            ]
        },
        {
            "children" : [
                2
            ],
            "name" : "Bone.002",
            "rotation" : [
                -2.642812724218402e-08,
                -1.835007594763738e-07,
                0.0476805679500103,
                0.998862624168396
            ],
            "scale" : [
                0.9999998807907104,
                0.9999998807907104,
                1
            ],
            "translation" : [
                -1.6696013460659742e-08,
                1.1373127698898315,
                -8.977688655421173e-15
            ]
        },
        {
            "children" : [
                3
            ],
            "name" : "Bone.001",
            "rotation" : [
                -1.5104295414403168e-07,
                -2.896566115850874e-07,
                0.1699981391429901,
                0.9854444265365601
            ],
            "scale" : [
                0.9999999403953552,
                0.9999999403953552,
                1
            ],
            "translation" : [
                -1.9910125104161125e-08,
                1.378867268562317,
                -1.658439011120727e-13
            ]
        },
        {
            "children" : [
                4
            ],
            "name" : "Bone",
            "rotation" : [
                4.99576231050014e-07,
                3.812555746662838e-07,
                -0.8239073753356934,
                0.5667244791984558
            ],
            "scale" : [
                1.0000001192092896,
                1.000000238418579,
                1
            ],
            "translation" : [
                -3.968357563018799,
                0.4931398332118988,
                -6.625766246770581e-08
            ]
        },
        {
            "mesh" : 0,
            "name" : "Cube",
            "skin" : 0
        },
        {
            "children" : [
                6,
                5
            ],
            "name" : "Armature"
        }
    ],
    "meshes" : [
        {
            "name" : "Cube.001",
            "primitives" : [
                {
                    "attributes" : {
                        "POSITION" : 0,
                        "NORMAL" : 1,
                        "TEXCOORD_0" : 2,
                        "JOINTS_0" : 3,
                        "WEIGHTS_0" : 4
                    },
                    "indices" : 5
                }
            ]
        }
    ],
    "skins" : [
        {
            "inverseBindMatrices" : 6,
            "joints" : [
                5,
                4,
                3,
                2,
                1,
                0
            ],
            "name" : "Armature"
        }
    ],
    "accessors" : [
        {
            "bufferView" : 0,
            "componentType" : 5126,
            "count" : 416,
            "max" : [
                3.205048084259033,
                3.416729688644409,
                1.4287225008010864
            ],
            "min" : [
                -4.249780178070068,
                -1.7602721452713013,
                -1.4287225008010864
            ],
            "type" : "VEC3"
        },
        {
            "bufferView" : 1,
            "componentType" : 5126,
            "count" : 416,
            "type" : "VEC3"
        },
        {
            "bufferView" : 2,
            "componentType" : 5126,
            "count" : 416,
            "type" : "VEC2"
        },
        {
            "bufferView" : 3,
            "componentType" : 5123,
            "count" : 416,
            "type" : "VEC4"
        },
        {
            "bufferView" : 4,
            "componentType" : 5126,
            "count" : 416,
            "type" : "VEC4"
        },
        {
            "bufferView" : 5,
            "componentType" : 5123,
            "count" : 624,
            "type" : "SCALAR"
        },
        {
            "bufferView" : 6,
            "componentType" : 5126,
            "count" : 6,
            "type" : "MAT4"
        }
    ],
    "bufferViews" : [
        {
            "buffer" : 0,
            "byteLength" : 4992,
            "byteOffset" : 0
        },
        {
            "buffer" : 0,
            "byteLength" : 4992,
            "byteOffset" : 4992
        },
        {
            "buffer" : 0,
            "byteLength" : 3328,
            "byteOffset" : 9984
        },
        {
            "buffer" : 0,
            "byteLength" : 3328,
            "byteOffset" : 13312
        },
        {
            "buffer" : 0,
            "byteLength" : 6656,
            "byteOffset" : 16640
        },
        {
            "buffer" : 0,
            "byteLength" : 1248,
            "byteOffset" : 23296
        },
        {
            "buffer" : 0,
            "byteLength" : 384,
            "byteOffset" : 24544
        }
    ],
    "buffers" : [
        {
            "byteLength" : 24928,
            "uri" : "data:application/octet-stream;base64,"
        }
    ]
}
