{
    "asset" : {
        "generator" : "Khronos glTF Blender I/O v1.3.48",
        "version" : "2.0"
    },
    "scene" : 0,
    "scenes" : [
        {
            "name" : "Scene",
            "nodes" : [
                12
            ]
        }
    ],
    "nodes" : [
        {
            "name" : "EndBone",
            "rotation" : [
                1.3234889800848443e-23,
                1.1187491111286363e-07,
                -6.1757336750288415e-24,
                1
            ],
            "scale" : [
                1,
                0.9999999403953552,
                1
            ],
            "translation" : [
                -1.3501353433602756e-20,
                0.5,
                3.0334717812040814e-27
            ]
        },
        {
            "children" : [
                0
            ],
            "name" : "Bone.006",
            "rotation" : [
                0,
                1.541826745988295e-23,
                -6.175733280598389e-24,
                1
            ],
            "translation" : [
                -8.082105398881542e-22,
                0.5,
                1.0959318150230395e-30
            ]
        },
        {
            "children" : [
                1
            ],
            "name" : "Bone.005",
            "rotation" : [
                -2.842170943040401e-14,
                -1.4210854715202004e-14,
                -4.296922069077486e-22,
                1
            ],
            "translation" : [
                -8.20562006449351e-22,
                0.5,
                -2.407412430484045e-35
            ]
        },
        {
            "children" : [
                2
            ],
            "name" : "Bone.004",
            "rotation" : [
                5.684341886080802e-14,
                2.842170943040401e-14,
                8.373267521893631e-22,
                1
            ],
            "translation" : [
                -4.1645792295207533e-22,
                0.5,
                2.842170943040401e-14
            ]
        },
        {
            "children" : [
                3
            ],
            "name" : "Bone.003",
            "rotation" : [
                -2.842170943040401e-14,
                -1.4210854715202004e-14,
                -4.2263370671977165e-22,
                1
            ],
            "translation" : [
                8.82409711160637e-24,
                0.5,
                0
            ]
        },
        {
            "children" : [
                4
            ],
            "name" : "ElbowBone",
            "rotation" : [
                0,
                1.541826745988295e-23,
                -2.6473036019513638e-24,
                1
            ],
            "translation" : [
                -4.1998697109767204e-22,
                0.5,
                0
            ]
        },
        {
            "children" : [
                5
            ],
            "name" : "Bone.002",
            "rotation" : [
                2.1316282072803006e-14,
                7.105427357601002e-15,
                3.1499006424018575e-22,
                1
            ],
            "translation" : [
                -4.252816035451237e-22,
                0.5000001192092896,
                1.4210854715202004e-14
            ]
        },
        {
            "children" : [
                6
            ],
            "name" : "Bone.008",
            "rotation" : [
                -5.329070518200751e-15,
                1.4210854715202004e-14,
                -1.0587903005436616e-22,
                1
            ],
            "translation" : [
                -6.370396384103071e-22,
                0.5000001192092896,
                1.4210854715202004e-14
            ]
        },
        {
            "children" : [
                7
            ],
            "name" : "Bone.001",
            "rotation" : [
                -5.329070518200751e-15,
                -1.4210854715202004e-14,
                -1.0499666704377111e-22,
                1
            ],
            "translation" : [
                -3.1763735522036263e-22,
                0.5000001192092896,
                -5.7317098088911415e-36
            ]
        },
        {
            "children" : [
                8
            ],
            "name" : "RootBone.001",
            "rotation" : [
                0,
                1.5418280081657434e-23,
                -4.733165431326071e-30,
                1
            ],
            "translation" : [
                -1.0587913102856203e-22,
                0.5000001192092896,
                2.942726775082116e-44
            ]
        },
        {
            "children" : [
                9
            ],
            "name" : "RootBone",
            "rotation" : [
                6.339203650895797e-08,
                7.574776361707336e-09,
                5.088690720462098e-16,
                1
            ]
        },
        {
            "mesh" : 0,
            "name" : "Cylinder.008",
            "skin" : 0
        },
        {
            "children" : [
                11,
                10
            ],
            "name" : "Armature"
        }
    ],
    "meshes" : [
        {
            "name" : "Cylinder.009",
            "primitives" : [
                {
                    "attributes" : {
                        "POSITION" : 0,
                        "NORMAL" : 1,
                        "TEXCOORD_0" : 2,
                        "JOINTS_0" : 3,
                        "WEIGHTS_0" : 4
                    },
                    "indices" : 5
                }
            ]
        }
    ],
    "skins" : [
        {
            "inverseBindMatrices" : 6,
            "joints" : [
                10,
                9,
                8,
                7,
                6,
                5,
                4,
                3,
                2,
                1,
                0
            ],
            "name" : "Armature"
        }
    ],
    "accessors" : [
        {
            "bufferView" : 0,
            "componentType" : 5126,
            "count" : 1010,
            "max" : [
                0.25079628825187683,
                5.005455017089844,
                0.25079628825187683
            ],
            "min" : [
                -0.25079628825187683,
                -0.09214639663696289,
                -0.25079628825187683
            ],
            "type" : "VEC3"
        },
        {
            "bufferView" : 1,
            "componentType" : 5126,
            "count" : 1010,
            "type" : "VEC3"
        },
        {
            "bufferView" : 2,
            "componentType" : 5126,
            "count" : 1010,
            "type" : "VEC2"
        },
        {
            "bufferView" : 3,
            "componentType" : 5123,
            "count" : 1010,
            "type" : "VEC4"
        },
        {
            "bufferView" : 4,
            "componentType" : 5126,
            "count" : 1010,
            "type" : "VEC4"
        },
        {
            "bufferView" : 5,
            "componentType" : 5123,
            "count" : 3840,
            "type" : "SCALAR"
        },
        {
            "bufferView" : 6,
            "componentType" : 5126,
            "count" : 11,
            "type" : "MAT4"
        }
    ],
    "bufferViews" : [
        {
            "buffer" : 0,
            "byteLength" : 12120,
            "byteOffset" : 0
        },
        {
            "buffer" : 0,
            "byteLength" : 12120,
            "byteOffset" : 12120
        },
        {
            "buffer" : 0,
            "byteLength" : 8080,
            "byteOffset" : 24240
        },
        {
            "buffer" : 0,
            "byteLength" : 8080,
            "byteOffset" : 32320
        },
        {
            "buffer" : 0,
            "byteLength" : 16160,
            "byteOffset" : 40400
        },
        {
            "buffer" : 0,
            "byteLength" : 7680,
            "byteOffset" : 56560
        },
        {
            "buffer" : 0,
            "byteLength" : 704,
            "byteOffset" : 64240
        }
    ],
    "buffers" : [
        {
            "byteLength" : 64944,
            "uri" : "data:application/octet-stream;base64,"
        }
    ]
}
