{
    "asset" : {
        "generator" : "Khronos glTF Blender I/O v1.3.48",
        "version" : "2.0"
    },
    "scene" : 0,
    "scenes" : [
        {
            "name" : "Scene",
            "nodes" : [
                4
            ]
        }
    ],
    "nodes" : [
        {
            "name" : "EndBone",
            "translation" : [
                0,
                2.5077333450317383,
                0
            ]
        },
        {
            "children" : [
                0
            ],
            "name" : "ElbowBone",
            "rotation" : [
                -1.4431803307957125e-08,
                -7.574776361707336e-09,
                -1.0931768174339088e-16,
                1
            ],
            "translation" : [
                0,
                2.3274784088134766,
                0
            ]
        },
        {
            "children" : [
                1
            ],
            "name" : "RootBone",
            "rotation" : [
                7.2159016539785625e-09,
                7.574776361707336e-09,
                1.0931768174339088e-16,
                1
            ]
        },
        {
            "mesh" : 0,
            "name" : "Cylinder.008",
            "skin" : 0
        },
        {
            "children" : [
                3,
                2
            ],
            "name" : "Armature"
        }
    ],
    "meshes" : [
        {
            "name" : "Cylinder.009",
            "primitives" : [
                {
                    "attributes" : {
                        "POSITION" : 0,
                        "NORMAL" : 1,
                        "TEXCOORD_0" : 2,
                        "JOINTS_0" : 3,
                        "WEIGHTS_0" : 4
                    },
                    "indices" : 5
                }
            ]
        }
    ],
    "skins" : [
        {
            "inverseBindMatrices" : 6,
            "joints" : [
                2,
                1,
                0
            ],
            "name" : "Armature"
        }
    ],
    "accessors" : [
        {
            "bufferView" : 0,
            "componentType" : 5126,
            "count" : 202,
            "max" : [
                0.25079628825187683,
                4.9341630935668945,
                0.25079628825187683
            ],
            "min" : [
                -0.25079628825187683,
                -0.22240877151489258,
                -0.25079628825187683
            ],
            "type" : "VEC3"
        },
        {
            "bufferView" : 1,
            "componentType" : 5126,
            "count" : 202,
            "type" : "VEC3"
        },
        {
            "bufferView" : 2,
            "componentType" : 5126,
            "count" : 202,
            "type" : "VEC2"
        },
        {
            "bufferView" : 3,
            "componentType" : 5123,
            "count" : 202,
            "type" : "VEC4"
        },
        {
            "bufferView" : 4,
            "componentType" : 5126,
            "count" : 202,
            "type" : "VEC4"
        },
        {
            "bufferView" : 5,
            "componentType" : 5123,
            "count" : 768,
            "type" : "SCALAR"
        },
        {
            "bufferView" : 6,
            "componentType" : 5126,
            "count" : 3,
            "type" : "MAT4"
        }
    ],
    "bufferViews" : [
        {
            "buffer" : 0,
            "byteLength" : 2424,
            "byteOffset" : 0
        },
        {
            "buffer" : 0,
            "byteLength" : 2424,
            "byteOffset" : 2424
        },
        {
            "buffer" : 0,
            "byteLength" : 1616,
            "byteOffset" : 4848
        },
        {
            "buffer" : 0,
            "byteLength" : 1616,
            "byteOffset" : 6464
        },
        {
            "buffer" : 0,
            "byteLength" : 3232,
            "byteOffset" : 8080
        },
        {
            "buffer" : 0,
            "byteLength" : 1536,
            "byteOffset" : 11312
        },
        {
            "buffer" : 0,
            "byteLength" : 192,
            "byteOffset" : 12848
        }
    ],
    "buffers" : [
        {
            "byteLength" : 13040,
            "uri" : "data:application/octet-stream;base64,"
        }
    ]
}
