{
    "asset" : {
        "generator" : "Khronos glTF Blender I/O v1.3.48",
        "version" : "2.0"
    },
    "scene" : 0,
    "scenes" : [
        {
            "name" : "Scene",
            "nodes" : [
                0
            ]
        }
    ],
    "nodes" : [
        {
            "mesh" : 0,
            "name" : "Plane"
        }
    ],
    "meshes" : [
        {
            "name" : "Plane",
            "primitives" : [
                {
                    "attributes" : {
                        "POSITION" : 0,
                        "NORMAL" : 1,
                        "TEXCOORD_0" : 2
                    },
                    "indices" : 3
                }
            ]
        }
    ],
    "accessors" : [
        {
            "bufferView" : 0,
            "componentType" : 5126,
            "count" : 41616,
            "max" : [
                36.253883361816406,
                11.738000869750977,
                35.84269332885742
            ],
            "min" : [
                -40.11369705200195,
                -4.709929466247559,
                -35.907020568847656
            ],
            "type" : "VEC3"
        },
        {
            "bufferView" : 1,
            "componentType" : 5126,
            "count" : 41616,
            "type" : "VEC3"
        },
        {
            "bufferView" : 2,
            "componentType" : 5126,
            "count" : 41616,
            "type" : "VEC2"
        },
        {
            "bufferView" : 3,
            "componentType" : 5123,
            "count" : 62424,
            "type" : "SCALAR"
        }
    ],
    "bufferViews" : [
        {
            "buffer" : 0,
            "byteLength" : 499392,
            "byteOffset" : 0
        },
        {
            "buffer" : 0,
            "byteLength" : 499392,
            "byteOffset" : 499392
        },
        {
            "buffer" : 0,
            "byteLength" : 332928,
            "byteOffset" : 998784
        },
        {
            "buffer" : 0,
            "byteLength" : 124848,
            "byteOffset" : 1331712
        }
    ],
    "buffers" : [
        {
            "byteLength" : 1456560,
            "uri" : "data:application/octet-stream;base64,"
        }
    ]
}
